<svg xmlns="http://www.w3.org/2000/svg" xmlns:xlink="http://www.w3.org/1999/xlink" width="22" height="33" x="0" y="0" baseProfile="tiny" overflow="visible" version="1.2" viewBox="0 0 22 33" xml:space="preserve"><rect width="4" height="4" x=".5" y="28.5" fill="#fff" stroke="#000" stroke-width="1"/><rect width="8" height="4" x=".5" y="21.5" fill="#fff" stroke="#000" stroke-width="1"/><rect width="11" height="4" x=".5" y="14.5" fill="#fff" stroke="#000" stroke-width="1"/><rect width="16" height="4" x=".5" y="7.5" fill="#fff" stroke="#000" stroke-width="1"/><rect width="20" height="4" x=".5" y=".5" fill="#fff" stroke="#000" stroke-width="1"/><rect width="9" height="24" x="13" y="9" fill="#000"/><path fill="#FFF" d="M13,33 v-24 h9 v-1 h-10 v24 z"/><path fill="#FFF" d="M20.5,12 L14.5,13.5 v1 L18.5,15.75 L14.5,17 v1 L20.5,19.5 v-1.25 L16.5,17.375 L20.5,16.5 v-1.25 L16.5,14.125 L20.5,13.25 z"/><rect width="4.75" height="1.25" x="14.5" y="20.25" fill="#fff"/><rect width="1" height="1.25" x="19.5" y="20.25" fill="#fff"/><path fill="#FFF" d="M14.5,22.75 v1.25 h2.5 v2.5 h1 v-2.5 h1.5 v2.75 h1 v-4 z"/><rect width="4.75" height="1.25" x="14.5" y="27.5" fill="#fff"/><rect width="1" height="1.25" x="19.5" y="27.5" fill="#fff"/></svg>