<svg xmlns="http://www.w3.org/2000/svg" xmlns:xlink="http://www.w3.org/1999/xlink" width="33" height="22" x="0" y="0" baseProfile="tiny" overflow="visible" version="1.2" viewBox="0 0 33 22" xml:space="preserve"><rect width="4" height="4" x="28.5" y="17.5" fill="#000" stroke="#000" stroke-width="1"/><rect width="4" height="8" x="21.5" y="13.5" fill="#000" stroke="#000" stroke-width="1"/><rect width="4" height="11" x="14.5" y="10.5" fill="#000" stroke="#000" stroke-width="1"/><rect width="4" height="16" x="7.5" y="5.5" fill="#000" stroke="#000" stroke-width="1"/><rect width="4" height="20" x=".5" y="1.5" fill="#fff" stroke="#000" stroke-width="1"/><rect width="24" height="9" x="9" y="0" fill="#000"/><path fill="#FFF" d="M33,9 h-24 v-9 h-1 v10 h24 z"/><path fill="#FFF" d="M12,1.5 L13.5,7.5 h1 L15.75,3.5 L17,7.5 h1 L19.5,1.5 h-1.25 L17.375,5.5 L16.5,1.5 h-1.25 L14.125,5.5 L13.25,1.5 z"/><rect width="1.25" height="4.75" x="20.25" y="2.75" fill="#fff"/><rect width="1.25" height="1" x="20.25" y="1.25" fill="#fff"/><path fill="#FFF" d="M22.75,7.5 h1.25 v-2.5 h2.5 v-1 h-2.5 v-1.5 h2.75 v-1 h-4 z"/><rect width="1.25" height="4.75" x="27.5" y="2.75" fill="#fff"/><rect width="1.25" height="1" x="27.5" y="1.25" fill="#fff"/></svg>