<svg xmlns="http://www.w3.org/2000/svg" xmlns:xlink="http://www.w3.org/1999/xlink" width="33" height="22" x="0" y="0" baseProfile="tiny" overflow="visible" version="1.2" viewBox="0 0 33 22" xml:space="preserve"><rect width="4" height="4" x=".5" y="17.5" fill="#000" stroke="#000" stroke-width="1"/><rect width="4" height="8" x="7.5" y="13.5" fill="#fff" stroke="#000" stroke-width="1"/><rect width="4" height="11" x="14.5" y="10.5" fill="#fff" stroke="#000" stroke-width="1"/><rect width="4" height="16" x="21.5" y="5.5" fill="#fff" stroke="#000" stroke-width="1"/><rect width="4" height="20" x="28.5" y="1.5" fill="#fff" stroke="#000" stroke-width="1"/><rect width="24" height="9" x="0" y="0" fill="#000"/><path fill="#FFF" d="M0,9 h24 v-9 h1 v10 h-24 z"/><path fill="#FFF" d="M3,1.5 L4.5,7.5 h1 L6.75,3.5 L8,7.5 h1 L10.5,1.5 h-1.25 L8.375,5.5 L7.5,1.5 h-1.25 L5.125,5.5 L4.25,1.5 z"/><rect width="1.25" height="4.75" x="11.25" y="2.75" fill="#fff"/><rect width="1.25" height="1" x="11.25" y="1.25" fill="#fff"/><path fill="#FFF" d="M13.75,7.5 h1.25 v-2.5 h2.5 v-1 h-2.5 v-1.5 h2.75 v-1 h-4 z"/><rect width="1.25" height="4.75" x="18.5" y="2.75" fill="#fff"/><rect width="1.25" height="1" x="18.5" y="1.25" fill="#fff"/></svg>